:SAMPLES-PER-SECOND 30
:FULLY-SPECIFIED
:DEGREES
504
root  72.8989 38.3216 0.183591 174.27 -76.7301 -172.113
RightUpLeg  -25.4582 1.71573 -1.70223
RightLeg  39.1945 1.7272 1.27998
RightFoot  -4.55697 -0.510494 8.06678
RightToes  9.54606e-009 0 -3.6325e-017
Spine  -5.07203 3.42832 0.280957
Spine1  13.6914 3.46395 -2.45321
HEad  31.5305 0.183746 -43.6773
LeftShoulder1  -0.782774 5.44693 -34.1137
LeftArm  -7.12591 1.39156 -45.9585
LeftForeArm  31.0627 -1.23285 -6.87611
LeftHand  -0.133416 8.22528 -3.45883
RightShoulder  -0.927182 -6.13016 28.6756
RightArm  18.3394 -8.94318 43.8124
RightForeArm  9.66178 12.2738 7.04792
RightHand  -0.324531 8.22229 -3.13174
LeftUpLeg  -2.05334 13.6286 3.93578
LeftLeg  18.3776 10.9462 -0.974726
LeftFoot  -18.0023 0.181337 1.25691
LeftToes  -8.26734e-010 9.74065e-011 1.64617e-011
505
root  72.5156 38.3586 0.209063 171.427 -76.8343 -168.854
RightUpLeg  -26.4427 0.995553 0.1092
RightLeg  33.0812 -0.0994657 -0.290337
RightFoot  -4.56996 -0.488287 7.71453
RightToes  9.54606e-009 0 -3.6325e-017
Spine  -1.87795 2.61572 1.38301
Spine1  8.79128 3.16896 -3.75446
HEad  31.6404 1.48622 -42.4165
LeftShoulder1  -0.773672 5.48688 -32.8476
LeftArm  -6.19627 1.97184 -46.3043
LeftForeArm  29.6528 -3.41719 -7.56002
LeftHand  -0.148433 9.09346 -2.99522
RightShoulder  -1.09925 -6.44592 30.8496
RightArm  20.8692 -12.5742 41.0692
RightForeArm  9.42047 12.7934 7.22713
RightHand  -0.274798 7.58068 -2.82914
LeftUpLeg  -1.52365 13.7046 4.57583
LeftLeg  17.8099 10.5958 -1.05061
LeftFoot  -18.2688 0.198366 1.46655
LeftToes  -8.26734e-010 9.74065e-011 1.64617e-011
506
root  72.022 38.3851 0.19172 168.944 -76.939 -165.863
RightUpLeg  -26.6599 0.420792 1.72675
RightLeg  25.5129 -2.31185 -1.4032
RightFoot  -4.477 -0.483118 7.5333
RightToes  9.54606e-009 0 -3.6325e-017
Spine  -2.09778 2.00072 1.54376
Spine1  8.509 2.47918 -2.92273
HEad  30.8789 2.02734 -42.2035
LeftShoulder1  -0.775577 5.50085 -32.6767
LeftArm  -5.15547 0.686719 -46.8337
LeftForeArm  29.8492 -5.6395 -8.28785
LeftHand  -0.127535 9.72202 -1.91196
RightShoulder  -1.08047 -6.36912 31.1598
RightArm  19.9815 -14.9941 40.3695
RightForeArm  11.1119 11.8278 7.33302
RightHand  -0.306778 6.76187 -3.26912
LeftUpLeg  -0.748368 13.7854 5.23538
LeftLeg  16.8845 10.2463 -1.26851
LeftFoot  -18.6027 0.19759 1.35528
LeftToes  -8.26734e-010 9.74065e-011 1.64617e-011
507
root  71.4698 38.3752 0.146409 167.216 -76.7841 -163.597
RightUpLeg  -26.3998 0.449548 3.1039
RightLeg  17.3526 -4.16614 -1.67739
RightFoot  -3.91236 -0.4903 7.14767
RightToes  9.54606e-009 0 -3.6325e-017
Spine  -4.13416 1.89745 1.01038
Spine1  11.0668 1.90351 -0.684229
HEad  29.3265 2.16209 -43.0313
LeftShoulder1  -0.764956 5.44808 -33.1733
LeftArm  -3.84402 -2.10714 -47.6761
LeftForeArm  29.8857 -7.73558 -8.56656
LeftHand  -0.0887096 8.14861 -1.69802
RightShoulder  -1.02882 -6.30497 30.1638
RightArm  17.0752 -16.3212 41.0671
RightForeArm  13.7791 9.93849 7.21623
RightHand  -0.25124 6.53586 -2.78533
LeftUpLeg  0.121291 14.0914 5.96219
LeftLeg  16.0771 9.92638 -1.71456
LeftFoot  -19.1308 0.19909 1.23586
LeftToes  -8.26734e-010 9.74065e-011 1.64617e-011
508
root  70.8753 38.3065 0.0963785 167.687 -77.2007 -163.457
RightUpLeg  -26.5036 0.330493 3.52694
RightLeg  10.7352 -4.6147 -1.16204
RightFoot  -2.94209 -0.513139 6.69069
RightToes  9.54606e-009 0 -3.6325e-017
Spine  -4.90654 1.63913 0.0274756
Spine1  11.3159 1.22181 1.37432
HEad  31.0213 0.454941 -42.31
LeftShoulder1  -0.762291 5.4146 -33.7497
LeftArm  -0.379089 -3.57971 -48
LeftForeArm  27.0973 -10.8508 -8.55226
LeftHand  -0.050926 7.81262 -0.400054
RightShoulder  -0.984475 -6.24279 29.3784
RightArm  14.8961 -17.7592 41.4185
RightForeArm  16.4229 7.95275 6.95403
RightHand  -0.21826 6.82261 -2.42729
LeftUpLeg  0.583968 13.8958 5.8317
LeftLeg  15.7209 9.67687 -1.82599
LeftFoot  -19.7498 0.202064 1.13865
LeftToes  -8.26734e-010 9.74065e-011 1.64617e-011
509
root  70.1426 38.16 0.00630374 168.442 -77.2907 -163.753
RightUpLeg  -26.7406 1.87774 3.21862
RightLeg  6.9228 -4.32778 -0.625227
RightFoot  -2.35002 -0.606677 7.50345
RightToes  9.54606e-009 0 -3.6325e-017
Spine  -3.84936 1.72505 0.108777
Spine1  8.45883 1.30027 1.91012
HEad  31.0963 2.10614 -43.1284
LeftShoulder1  -0.706944 5.23395 -34.6836
LeftArm  4.00147 -3.64224 -47.1883
LeftForeArm  23.0222 -14.1385 -7.8231
LeftHand  -0.0428596 7.49606 -0.0973683
RightShoulder  -1.13454 -6.63526 29.7199
RightArm  14.47 -20.0412 39.9976
RightForeArm  17.7721 7.18171 6.62303
RightHand  -0.209784 7.37209 -2.27176
LeftUpLeg  1.44628 13.8767 5.81533
LeftLeg  15.5856 9.52741 -1.87879
LeftFoot  -20.769 0.187186 0.761109
LeftToes  -8.26734e-010 9.74065e-011 1.64617e-011
510
root  69.2954 37.9328 -0.127318 168.854 -77.1973 -163.867
RightUpLeg  -27.526 4.03591 2.96779
RightLeg  6.83425 -3.8049 -0.837316
RightFoot  -2.0346 -0.626478 7.51152
RightToes  9.54606e-009 0 -3.6325e-017
Spine  -5.13578 1.63721 0.301951
Spine1  9.80827 1.03138 2.24567
HEad  30.9397 1.61398 -43.2145
LeftShoulder1  -0.837348 5.55273 -34.6181
LeftArm  7.14194 -5.09657 -47.8398
LeftForeArm  18.8224 -16.7791 -6.68157
LeftHand  -0.0237475 7.58764 0.863596
RightShoulder  -1.00106 -6.31581 29.0041
RightArm  13.1945 -20.5636 40.6752
RightForeArm  17.8747 6.3933 6.19841
RightHand  -0.235657 6.91683 -2.5834
LeftUpLeg  2.64611 14.4196 6.3436
LeftLeg  15.8875 8.98704 -2.36785
LeftFoot  -22.213 0.179808 0.48223
LeftToes  -8.26734e-010 9.74065e-011 1.64617e-011
511
root  68.3338 37.6976 -0.317492 167.213 -76.9357 -161.964
RightUpLeg  -27.7904 5.30439 3.57142
RightLeg  8.25496 -3.24848 -0.868432
RightFoot  -1.15438 -0.591575 6.51259
RightToes  9.54606e-009 0 -3.6325e-017
Spine  -6.2676 1.58489 0.826683
Spine1  10.8447 0.566643 3.19975
HEad  31.1744 1.00577 -43.4291
LeftShoulder1  -1.05644 6.02827 -35.6556
LeftArm  10.9403 -6.05947 -47.2707
LeftForeArm  15.1319 -19.4963 -5.48432
LeftHand  -0.0154432 7.489 1.29053
RightShoulder  -0.856684 -5.98939 27.881
RightArm  11.8624 -20.9026 41.4181
RightForeArm  18.1674 6.19602 5.73305
RightHand  -0.200095 7.9374 -2.1015
LeftUpLeg  4.32686 15.1438 7.61948
LeftLeg  15.9129 8.04816 -2.96371
LeftFoot  -23.6725 0.170968 0.271445
LeftToes  -8.26734e-010 9.74065e-011 1.64617e-011
512
root  67.3359 37.5284 -0.507804 163.889 -77.1962 -158.186
RightUpLeg  -28.4155 6.21034 4.3907
RightLeg  11.1092 -3.82613 -1.12503
RightFoot  1.36474 -0.433964 4.17008
RightToes  9.54606e-009 0 -3.6325e-017
Spine  -6.3733 1.88424 2.21722
Spine1  10.0292 0.635218 3.49612
HEad  32.5894 0.278595 -43.1085
LeftShoulder1  -0.89304 5.65921 -35.1375
LeftArm  12.3144 -5.67145 -47.5542
LeftForeArm  13.8318 -21.136 -4.7588
LeftHand  -0.0153699 7.05744 1.46835
RightShoulder  -1.12021 -6.64711 29.0823
RightArm  12.5066 -20.9243 39.3635
RightForeArm  17.3528 7.33569 5.74746
RightHand  -0.146713 6.63101 -1.75938
LeftUpLeg  5.81402 15.188 8.7493
LeftLeg  15.5871 7.15159 -2.90736
LeftFoot  -24.7264 0.0817991 -0.571319
LeftToes  -8.26734e-010 9.74065e-011 1.64617e-011
513
root  66.2689 37.3911 -0.737514 157.829 -77.0998 -151.624
RightUpLeg  -29.1205 6.19387 6.30533
RightLeg  14.2765 -3.85187 -1.31961
RightFoot  4.86923 0.0166506 0.0136181
RightToes  9.54606e-009 0 -3.6325e-017
Spine  -7.7063 2.36455 4.91677
Spine1  10.9957 0.82455 3.26253
HEad  32.3349 0.691101 -43.5163
LeftShoulder1  -0.59858 4.99874 -33.9333
LeftArm  12.022 -5.14111 -48.5649
LeftForeArm  13.2296 -21.9808 -4.50957
LeftHand  0.0168589 7.54699 2.90769
RightShoulder  -1.26594 -6.93384 30.4035
RightArm  12.5418 -19.6904 38.0563
RightForeArm  15.5847 7.49118 5.70745
RightHand  -0.224585 6.4688 -2.5522
LeftUpLeg  7.47642 15.7065 10.8176
LeftLeg  15.2685 5.66117 -2.82367
LeftFoot  -25.634 -0.0567105 -1.67455
LeftToes  -8.26734e-010 9.74065e-011 1.64617e-011
